@startuml matmat.core.accounts
!pragma useIntermediatePackages false

class matmat.core.base.identity.AbstractIdentity {
  _regions: dict
  agg_level: str
  _base_year: int
  _proj_year: int
  scenario_name: str
}
class matmat.core.accounts.core.Accounts {
  _id: AccountsIdentity 
  _system: System 
  _extensions: dict 
}
class matmat.core.accounts.builder.AccountsDirector {
  system_director: SystemDirector
  extension_director: ExtensionDirector
}
class matmat.core.accounts.identity.AccountsIdentity {
  extension_names: list
}
class matmat.core.accounts.extension.builder.ExtensionDirector {
  _builder: ExtensionBuilder
  id: None
  _extension_categories: list | dict
  _final_demand_categories: dict
}
class matmat.core.accounts.system.core.System {
  _id: SystemIdentity 
  _x: XData 
  _Y: YData 
  _Z: ZData 
  _A: AData 
  _L: LData 
  _Yk: YkData | NullSystemData 
  _K: KData | NullSystemData 
  _Lk: LkData | NullSystemData 
  _unit: UnitSystemData 
  _calc_mode: AbstractSrioSystemCalculStrategy 
}
class matmat.core.accounts.system.builder.SystemDirector {
  _builder: SystemBuilder
  id: SystemIdentity
  _final_demand_categories: dict
}
class matmat.core.accounts.extension.core.Extension {
  _id: ExtensionIdentity 
  _S_x: SxData 
  _S_xk: SxkData | NullExtensionData 
  _S_Y: SyData | NullExtensionData 
  _S_Z: SzData | NullExtensionData 
  _F_x: FxData 
  _F_xk: FxkData | NullExtensionData 
  _F_Y: FyData | NullExtensionData 
  _F_Z: FzData | NullExtensionData 
  _unit: UnitExtensionData 
  _M: MData 
  _Mk: MkData | NullExtensionData 
  _d_cba: DCbaData 
  _d_cba_k: DCbaKData | NullExtensionData 
  _calc_mode: AbstractSrioExtensionCalculStrategy 
}
class matmat.core.accounts.extension.builder.ExtensionBuilder {
  _result: Extension
}
class matmat.core.accounts.system.builder.SystemBuilder {
  _result: System
}
matmat.core.accounts.core.Accounts *-- matmat.core.accounts.identity.AccountsIdentity
matmat.core.accounts.core.Accounts *-- matmat.core.accounts.system.core.System
matmat.core.accounts.builder.AccountsDirector *-- matmat.core.accounts.system.builder.SystemDirector
matmat.core.accounts.builder.AccountsDirector *-- matmat.core.accounts.extension.builder.ExtensionDirector
matmat.core.accounts.extension.builder.ExtensionDirector *-- matmat.core.accounts.extension.builder.ExtensionBuilder
matmat.core.accounts.system.builder.SystemDirector *-- matmat.core.accounts.system.builder.SystemBuilder
matmat.core.accounts.system.builder.SystemDirector *-- matmat.core.accounts.system.identity.SystemIdentity
matmat.core.accounts.extension.builder.ExtensionBuilder *-- matmat.core.accounts.extension.core.Extension
matmat.core.accounts.system.builder.SystemBuilder *-- matmat.core.accounts.system.core.System
matmat.core.base.identity.AbstractIdentity <|-- matmat.core.accounts.identity.AccountsIdentity
footer Generated by //py2puml//
@enduml

