@startuml matmat.core.shocks
!pragma useIntermediatePackages false

class matmat.core.base.identity.AbstractIdentity {
  _regions: dict
  agg_level: str
  _base_year: int
  _proj_year: int
  scenario_name: str
}

class matmat.core.shocks.extension.builder.ExtensionShockDirector {
  _builder: ExtensionShockBuilder
  id: None
  _extension_categories: list | dict
  _final_demand_categories: dict
}
class matmat.core.shocks.core.Shock {
  _id: ShockIdentity 
  _system_shock: SystemShock 
  _extensions_shocks: dict 
}
class matmat.core.shocks.builder.ShockDirector {
  system_shock_director: SystemShockDirector
  extension_shock_director: ExtensionShockDirector
}
class matmat.core.shocks.identity.ShockIdentity {
  extension_names: list
}
class matmat.core.shocks.system.core.SystemShock {
  _id: SystemShockIdentity 
  _imp_dom_ratio: ImpDomRatioShockData | NullSystemShockData 
  _dA: AShockData | NullSystemShockData 
  _dK: KShockData | NullSystemShockData 
  _dY: YShockData | NullSystemShockData 
  _dYk: YkShockData | NullSystemShockData 
  _dZ: ZShockData | NullSystemShockData 
}
class matmat.core.shocks.system.builder.SystemShockDirector {
  _builder: SystemShockBuilder
  id: None
  _final_demand_categories: dict
}
class matmat.core.shocks.extension.core.ExtensionShock {
  _id: ExtensionShockIdentity 
  _dS_x: SxShockData | NullExtensionShockData 
  _dS_Y: SyShockData | NullExtensionShockData 
  _dS_Z: SzShockData | NullExtensionShockData 
}
class matmat.core.shocks.extension.builder.ExtensionShockBuilder {
  _result: ExtensionShock
}
class matmat.core.shocks.system.builder.SystemShockBuilder {
  _result: SystemShock
}
matmat.core.shocks.extension.builder.ExtensionShockDirector *-- matmat.core.shocks.extension.builder.ExtensionShockBuilder
matmat.core.shocks.core.Shock *-- matmat.core.shocks.identity.ShockIdentity
matmat.core.shocks.core.Shock *-- matmat.core.shocks.system.core.SystemShock
matmat.core.shocks.builder.ShockDirector *-- matmat.core.shocks.system.builder.SystemShockDirector
matmat.core.shocks.builder.ShockDirector *-- matmat.core.shocks.extension.builder.ExtensionShockDirector
matmat.core.shocks.system.builder.SystemShockDirector *-- matmat.core.shocks.system.builder.SystemShockBuilder
matmat.core.shocks.extension.builder.ExtensionShockBuilder *-- matmat.core.shocks.extension.core.ExtensionShock
matmat.core.shocks.system.builder.SystemShockBuilder *-- matmat.core.shocks.system.core.SystemShock
matmat.core.base.identity.AbstractIdentity <|-- matmat.core.shocks.identity.ShockIdentity
footer Generated by //py2puml//
@enduml

